<svg xmlns="http://www.w3.org/2000/svg" viewBox="0 0 16 16" fill="none">
  <path fill="#000" d="M8 0C3.58 0 0 3.58 0 8c0 3.54 2.29 6.55 5.47 7.61.4.07.55-.17.55-.38 0-.19-.01-.72-.01-1.36-2.22.48-2.68-1.07-2.68-1.07-.36-.92-.87-1.17-.87-1.17-.71-.48.06-.47.06-.47.79.06 1.2.82 1.2.82.7 1.2 1.83.86 2.28.66.07-.51.27-.86.49-1.06-1.76-.2-3.61-.88-3.61-3.92 0-.86.31-1.57.82-2.12-.08-.2-.36-.99.08-2.06 0 0 .67-.22 2.19.82C5.72 2.3 6.84 2 8 2c1.16 0 2.28.3 3.23.86 1.51-1.04 2.18-.82 2.18-.82.44 1.07.16 1.86.08 2.06.51.55.82 1.26.82 2.12 0 3.04-1.85 3.72-3.61 3.92.23.2.44.6.44 1.17 0 1.44-.01 2.6-.01 2.98 0 .21.15.46.55.38C13.71 14.55 16 11.54 16 8c0-4.42-3.58-8-8-8z"/>
</svg>
